TITLE ""
FILE "Disc2Track10.mp3" MP3
  TRACK 01 AUDIO
    TITLE "Disc2Track10_01"
    INDEX 01 00:00:00
  TRACK 02 AUDIO
    TITLE "Disc2Track10_02"
    INDEX 01 00:01:08
  TRACK 03 AUDIO
    TITLE "Disc2Track10_03"
    INDEX 01 00:02:15
  TRACK 04 AUDIO
    TITLE "Disc2Track10_04"
    INDEX 01 00:03:36
  TRACK 05 AUDIO
    TITLE "Disc2Track10_05"
    INDEX 01 00:07:03
  TRACK 06 AUDIO
    TITLE "Disc2Track10_06"
    INDEX 01 00:07:34
  TRACK 07 AUDIO
    TITLE "Disc2Track10_07"
    INDEX 01 00:08:61
  TRACK 08 AUDIO
    TITLE "Disc2Track10_08"
    INDEX 01 00:09:66
  TRACK 09 AUDIO
    TITLE "Disc2Track10_09"
    INDEX 01 00:11:18
  TRACK 10 AUDIO
    TITLE "Disc2Track10_10"
    INDEX 01 00:11:59
  TRACK 11 AUDIO
    TITLE "Disc2Track10_11"
    INDEX 01 00:13:05
  TRACK 12 AUDIO
    TITLE "Disc2Track10_12"
    INDEX 01 00:14:16
  TRACK 13 AUDIO
    TITLE "Disc2Track10_13"
    INDEX 01 00:15:35
  TRACK 14 AUDIO
    TITLE "Disc2Track10_14"
    INDEX 01 00:19:31
  TRACK 15 AUDIO
    TITLE "Disc2Track10_15"
    INDEX 01 00:19:61
  TRACK 16 AUDIO
    TITLE "Disc2Track10_16"
    INDEX 01 00:21:67
  TRACK 17 AUDIO
    TITLE "Disc2Track10_17"
    INDEX 01 00:24:64
  TRACK 18 AUDIO
    TITLE "Disc2Track10_18"
    INDEX 01 00:26:68
  TRACK 19 AUDIO
    TITLE "Disc2Track10_19"
    INDEX 01 00:32:57
  TRACK 20 AUDIO
    TITLE "Disc2Track10_20"
    INDEX 01 00:33:10
  TRACK 21 AUDIO
    TITLE "Disc2Track10_21"
    INDEX 01 00:34:33
  TRACK 22 AUDIO
    TITLE "Disc2Track10_22"
    INDEX 01 00:35:34
  TRACK 23 AUDIO
    TITLE "Disc2Track10_23"
    INDEX 01 00:36:55
  TRACK 24 AUDIO
    TITLE "Disc2Track10_24"
    INDEX 01 00:37:21
  TRACK 25 AUDIO
    TITLE "Disc2Track10_25"
    INDEX 01 00:38:46
  TRACK 26 AUDIO
    TITLE "Disc2Track10_26"
    INDEX 01 00:39:73
  TRACK 27 AUDIO
    TITLE "Disc2Track10_27"
    INDEX 01 00:41:23
  TRACK 28 AUDIO
    TITLE "Disc2Track10_28"
    INDEX 01 00:47:45
  TRACK 29 AUDIO
    TITLE "Disc2Track10_29"
    INDEX 01 00:48:03
  TRACK 30 AUDIO
    TITLE "Disc2Track10_30"
    INDEX 01 00:49:32
  TRACK 31 AUDIO
    TITLE "Disc2Track10_31"
    INDEX 01 00:52:46
  TRACK 32 AUDIO
    TITLE "Disc2Track10_32"
    INDEX 01 00:53:71
  TRACK 33 AUDIO
    TITLE "Disc2Track10_33"
    INDEX 01 00:56:26
  TRACK 34 AUDIO
    TITLE "Disc2Track10_34"
    INDEX 01 00:56:54
  TRACK 35 AUDIO
    TITLE "Disc2Track10_35"
    INDEX 01 00:58:16
  TRACK 36 AUDIO
    TITLE "Disc2Track10_36"
    INDEX 01 00:59:72
  TRACK 37 AUDIO
    TITLE "Disc2Track10_37"
    INDEX 01 01:01:33
  TRACK 38 AUDIO
    TITLE "Disc2Track10_38"
    INDEX 01 01:05:25
  TRACK 39 AUDIO
    TITLE "Disc2Track10_39"
    INDEX 01 01:05:55
  TRACK 40 AUDIO
    TITLE "Disc2Track10_40"
    INDEX 01 01:06:74
  TRACK 41 AUDIO
    TITLE "Disc2Track10_41"
    INDEX 01 01:08:24
  TRACK 42 AUDIO
    TITLE "Disc2Track10_42"
    INDEX 01 01:09:41
  TRACK 43 AUDIO
    TITLE "Disc2Track10_43"
    INDEX 01 01:15:30
  TRACK 44 AUDIO
    TITLE "Disc2Track10_44"
    INDEX 01 01:15:61
  TRACK 45 AUDIO
    TITLE "Disc2Track10_45"
    INDEX 01 01:17:15
  TRACK 46 AUDIO
    TITLE "Disc2Track10_46"
    INDEX 01 01:18:06
  TRACK 47 AUDIO
    TITLE "Disc2Track10_47"
    INDEX 01 01:19:35
